<?xml version="1.0" encoding="UTF-8" standalone="no"?>
<svg
   xmlns:dc="http://purl.org/dc/elements/1.1/"
   xmlns:cc="http://creativecommons.org/ns#"
   xmlns:rdf="http://www.w3.org/1999/02/22-rdf-syntax-ns#"
   xmlns:svg="http://www.w3.org/2000/svg"
   xmlns="http://www.w3.org/2000/svg"
   version="1.1"
   id="svg57020"
   viewBox="0 0 454.00331 431.92533"
   height="121.89893mm"
   width="128.12982mm">
  <defs
     id="defs57022" />
  <metadata
     id="metadata57025">
    <rdf:RDF>
      <cc:Work
         rdf:about="">
        <dc:format>image/svg+xml</dc:format>
        <dc:type
           rdf:resource="http://purl.org/dc/dcmitype/StillImage" />
        <dc:title></dc:title>
      </cc:Work>
    </rdf:RDF>
  </metadata>
  <g
     transform="translate(270.99952,-53.523291)"
     id="layer1">
    <path
       id="path57579"
       d="m -125.34194,483.92127 c -0.8899,-1.07326 -1.2502,-3.44652 -1.0248,-6.75 0.5138,-7.53242 0.5376,-12.89022 0.2158,-48.59476 -0.2802,-31.081 0.1575,-40.50083 2.0518,-44.16062 0.4727,-0.91335 2.3277,-2.55028 4.1222,-3.63764 2.8523,-1.7284 5.2413,-1.99434 18.997,-2.11478 8.653897,-0.0758 16.397897,-0.39236 17.208797,-0.70353 0.8109,-0.31116 3.0277,-0.0531 4.9262,0.57347 5.7921,1.91155 8.5932,11.93243 4.7375,16.94768 -1.7071,2.22039 -2.2607,2.34439 -7.2278,1.61884 -5.7833,-0.8448 -7.1039,-0.84013 -16.5375,0.0584 -3.790597,0.36105 -6.968297,0.15314 -8.264797,-0.54075 -2.8077,-1.50259 -3.0638,-0.66331 -3.3467,10.96489 l -0.2301,9.45997 6,0.0406 c 3.3,0.0224 7.349997,-0.23484 8.999997,-0.57152 3.5271,-0.71968 8.138,1.26122 8.8545,3.80399 1.2781,4.53596 1.5686,7.8749 0.79,9.08329 -1.1822,1.83499 -6.4482,2.86622 -15.735997,3.08157 -4.3425,0.10069 -8.2193,0.50693 -8.6151,0.90276 -0.3959,0.39583 -1.0043,4.98876 -1.3522,10.20652 -0.8564,12.84669 -0.7091,13.01271 12.106197,13.64194 7.0507,0.34619 11.5563,0.053 15.4526,-1.00542 6.9097,-1.87703 8.4062,-0.82723 10.0401,7.04324 1.2451,5.99785 0.1446,10.6385 -2.7901,11.76463 -0.8618,0.33069 -8.4265,0.60126 -16.8104,0.60126 -12.194397,0 -15.487697,0.29417 -16.463997,1.47059 -0.6713,0.80883 -1.8983,1.47059 -2.7268,1.47059 -0.8285,0 -3.2497,1.575 -5.3805,3.5 -4.3154,3.89869 -5.9753,4.28166 -7.9959,1.84476 z m -80.7969,-3.9752 -2.2578,-2.86956 0.5747,-31 c 0.7935,-42.80385 1.718,-65.69723 2.7326,-67.66911 0.6499,-1.2631 2.2716,-1.67586 6.6671,-1.69688 6.9318,-0.0331 9.9241,1.91346 14.012,9.11551 4.3218,7.61406 15.1822,25.85554 18.3078,30.75048 1.5804,2.475 3.9961,6.8625 5.3682,9.75 1.3721,2.8875 2.6405,5.25 2.8187,5.25 0.1782,0 0.3093,-3.7125 0.2914,-8.25 -0.089,-22.57929 1.0226,-40.26139 2.734,-43.49058 2.5394,-4.79164 6.0001,-6.74175 9.9573,-5.61103 l 3.2185,0.91965 0.6935,9.96598 c 0.8992,12.92146 0.7685,50.23899 -0.2361,67.41698 -0.4933,8.43487 -0.4028,15.63017 0.2427,19.29453 0.8981,5.09857 0.8037,6.09281 -0.7404,7.799 -3.2988,3.64514 -11.1811,1.86 -15.6508,-3.54453 -1.3646,-1.65 -6.6235,-11.53116 -11.6865,-21.95812 -9.2567,-19.06389 -17.3035,-33.61734 -19.6762,-35.58649 -2.3284,-1.93243 -2.6577,2.59832 -2.2978,31.61451 0.4001,32.26752 0.6912,31.06959 -7.7921,32.07431 -4.6667,0.55269 -5.1832,0.39131 -7.2808,-2.27465 z m 150.566897,-0.20448 c -1.7164,-1.9037 -1.8644,-4.28808 -1.9472,-31.36271 -0.08,-26.15201 0.1088,-29.83993 1.756,-34.30237 1.0151,-2.75 2.1952,-7.925 2.6224,-11.5 1.2258,-10.25723 2.5846,-15.27691 4.5181,-16.69074 2.6498,-1.93754 7.1278,-1.58975 9.4516,0.73407 1.962,1.96194 2.0241,2.88804 1.5591,23.25 -0.2664,11.66367 -0.8005,26.04417 -1.187,31.95667 -0.3864,5.9125 -0.3977,10.75 -0.025,10.75 0.3728,0 3.5113,-2.70959 6.9745,-6.02132 5.2926,-5.06104 7.3885,-8.1871 13.142,-19.60168 4.4894,-8.90655 7.6114,-13.92944 9.0714001,-14.59463 3.2929,-1.50034 7.5797,0.32407 9.83500004,4.18558 2.34339996,4.01259 5.57679996,14.71471 6.50529996,21.53205 0.7793,5.72274 1.8848,8.05272 5.3641999,11.30655 l 2.4665,2.30654 0.6517,-14.80654 c 0.9987,-22.69256 1.9713,-31.48633 3.8716,-35.00689 0.95,-1.76019 1.7274,-4.58852 1.7274,-6.28518 0,-3.16225 2.1852,-7.54265 4.8711,-9.76448 2.3226,-1.92128 6.893,-1.48589 9.2611,0.88225 1.8546,1.85457 2.0635,2.929 1.604,8.25 -0.2906,3.36476 -0.1975,8.54501 0.2069,11.51166 0.5381,3.94738 0.2229,7.56779 -1.1752,13.5 -1.6376,6.94851 -1.8645,11.17637 -1.5892,29.60609 0.2403,16.07824 -0.01,22.28146 -0.9874,24.59886 -2.8266,6.69286 -15.0683,9.7611 -21.2846,5.33471 -1.5961,-1.13654 -4.3376999,-4.17404 -6.0922999,-6.75 -1.7547,-2.57596 -6.30599996,-7.83357 -10.1142,-11.68357 l -6.9239001,-7 -2.6382,3.5 c -5.2415,6.95387 -17.6736,18.08351 -23.0595,20.64369 -2.9817,1.41737 -7.9317,2.8031 -11,3.07939 -4.7464,0.42741 -5.8557,0.19499 -7.4362,-1.558 z m 126.4778,-1.24465 c -5.6017,-1.10051 -8.5233,-3.04676 -11.5507,-7.69472 -3.3993,-5.2187 -5.8707,-14.3067 -4.7138,-17.33305 1.4444,-3.77812 4.7652,-6.14993 8.7878,-6.27653 3.5722,-0.11242 3.7599,0.0596 5.8758,5.38387 1.8147,4.56665 2.9319,5.89501 6.5832,7.82773 3.7644,1.9926 5.4053,2.25626 11.3975,1.83132 3.85,-0.27303 7.675,-0.76298 8.5,-1.0888 0.825,-0.32581 2.4967,-3.03406 3.7148,-6.01834 2.072103,-5.07632 2.122303,-5.73758 0.778503,-10.26233 -0.985303,-3.31791 -3.011003,-6.44466 -6.452103,-9.95876 -4.8027,-4.90461 -5.4734,-5.23541 -15.7785,-7.78176 -5.9195,-1.46267 -12.2214,-2.97208 -14.0042,-3.35423 -4.674,-1.00188 -10.9385,-8.87835 -11.8394,-14.88576 -1.4027,-9.35376 4.8608,-21.46693 12.7932,-24.74115 2.3582,-0.97339 5.6974,-2.36693 7.4204,-3.09675 4.545,-1.92517 16.1873,-2.81509 20.8673,-1.59507 2.2,0.5735 6.1987,1.60083 8.886103,2.28294 3.6609,0.92923 5.3525,2.00507 6.7463,4.29058 2.4438,4.00747 2.3639,8.64968 -0.205,11.91552 -2.7187,3.45632 -5.8836,3.33374 -9.427403,-0.36514 -1.6105,-1.68102 -3.9162,-3 -5.2443,-3 -1.3035,0 -4.352,-0.49905 -6.7743,-1.109 -6.9066,-1.73912 -13.606,0.26836 -17.9908,5.39099 -1.9198,2.2429 -3.4906,4.63935 -3.4906,5.32543 0,2.27152 5.1366,5.39237 8.8849,5.39816 8.4417,0.013 22.0645,6.04771 29.022103,12.85634 2.7111,2.65307 6.1535,7.56542 8.0433,11.47797 3.2193,6.66486 3.2922,7.10288 2.8468,17.11741 -0.8513,19.14167 -5.9651,24.20118 -27.335003,27.04492 -6.0292,0.8023 -11.1871,1.41822 -11.4621,1.36869 -0.275,-0.0495 -2.4709,-0.47724 -4.8797,-0.95048 z m -120.8493,-112.94585 c -1.226,-0.49205 -8.9529,-1.52895 -17.1709,-2.30422 -12.1436,-1.14558 -15.6236,-1.83085 -18.5815,-3.65893 -2.0017,-1.23714 -5.0748,-2.60694 -6.829,-3.044 -1.7542,-0.43705 -5.6645,-1.78068 -8.689497,-2.98582 -3.025,-1.20515 -7.3,-2.8521 -9.5,-3.6599 -2.2,-0.8078 -4.929,-2.33565 -6.0645,-3.39522 -1.1354,-1.05957 -2.5681,-1.92649 -3.1837,-1.92649 -0.6156,0 -3.8348,-2.1375 -7.1538,-4.75 -3.3189,-2.6125 -8.6982,-6.259 -11.954,-8.10333 -7.6133,-4.31286 -22.3161,-21.71158 -32.0246,-37.89667 -2.3919,-3.9875 -4.9031,-7.25 -5.5805,-7.25 -0.6774,0 -2.6841,-0.72458 -4.4593,-1.61019 -1.9878,-0.99164 -4.3695,-1.38183 -6.2,-1.01573 -3.608,0.7216 -28.7551,-0.83209 -45.8796,-2.83462 -6.875,-0.80396 -16.8457,-1.92733 -22.1572,-2.49638 -11.7609,-1.26001 -12.0004,-1.34704 -14.2667,-5.18348 -1.673,-2.83217 -1.7206,-3.92651 -0.5972,-13.71864 0.8075,-7.03769 0.9549,-14.53512 0.4353,-22.14096 -1.4937,-21.8677 -1.0205,-33.72123 1.6453,-41.20906 l 2.3886,-6.70906 8.5259,-3.95315 c 4.6893,-2.17424 12.126,-4.85601 16.526,-5.9595 4.4,-1.10349 11.15,-3.20356 15,-4.66681 7.9267,-3.01268 12.2314,-4.31075 18,-5.4279 2.2,-0.42605 6.5869,-1.54887 9.7487,-2.49515 4.8216,-1.44306 5.8392,-2.15259 6.3104,-4.39994 0.3089,-1.47369 0.9845,-3.46082 1.5013,-4.41586 0.5168,-0.95504 0.9396,-3.2117 0.9396,-5.01481 0,-1.80311 0.9,-4.95758 2,-7.00994 1.1,-2.05237 2,-4.61794 2,-5.70127 0,-3.62086 3.2611,-8.86321 6.6482,-10.68728 1.8435,-0.99279 3.3518,-2.42791 3.3518,-3.18916 0,-3.1521 26.7457,-30.970433 32.6938,-34.004883 2.262,-1.154 5.3938,-3.64829 6.9595,-5.54287 1.7651,-2.13586 5.6964,-4.74542 10.3467,-6.86808 4.125,-1.88287 10.3862,-5.74583 13.9139,-8.58434 3.5276,-2.83852 7.3142,-5.16094 8.4147,-5.16094 1.1004,0 5.189197,-1.73959 9.086097,-3.86575 7.2669,-3.96483 22.6073,-8.14991 31.5853,-8.61695 19.2306,-1.00037 34.0191,-0.67579 41,0.89988 4.125,0.93105 9.975,2.15186 13.0000001,2.71291 3.025,0.56104 7.75000004,1.65082 10.5,2.42172 2.75,0.7709 6.6344,1.64753 8.6318999,1.94808 1.9976,0.30054 5.4812,1.88602 7.7414,3.52327 2.2602,1.63726 4.4508,2.98372 4.868,2.99213 0.4173,0.008 2.8442,1.47091 5.3931,3.25 2.549,1.77909 7.499,5.22344 11,7.65412 8.7131,6.04918 21.6323,16.93108 25.8656,21.786573 6.8265,7.82991 12,14.17258 12,14.712 0,0.30074 1.7081,3.36722 3.7958,6.81441 7.0554,11.64975 12.5554,23.22167 15.8118,33.26761 l 3.241503,10 4.8254,1.76897 c 2.654,0.97293 11.8005,3.54133 20.3255,5.70755 18.8951,4.80131 23.8092,6.322 30.394,9.40557 2.8083,1.31509 6.6424,2.7191 8.5203,3.12003 6.4638,1.38005 15.5854,6.10453 16.759,8.68024 1.1962,2.62538 1.8272,30.4922 1.4224,62.81764 -0.2703,21.58369 -0.7567,23.02067 -8.1902,24.1974 -2.423,0.38357 -8.9055,1.43116 -14.4055,2.32797 -5.5,0.89682 -19,2.05807 -30,2.58056 -49.824403,2.36664 -46.897903,1.79889 -51.000003,9.89407 -1.2892,2.5441 -3.1286,5.27236 -4.0875,6.06281 -0.959,0.79046 -3.3566,3.86053 -5.328,6.82239 -1.9715,2.96186 -4.4845,6.61909 -5.5845,8.12719 -5.4198,7.43052 -27.9993,25.0364 -38.5,30.0195 -3.575,1.69652 -7.2912,3.5145 -8.2582,4.03995 -11.2129999,6.09286 -35.6192,12.50366 -51.2418,13.45972 -4.4,0.26927 -9.35,0.6804 -11,0.91363 -1.65,0.23322 -4.0031,0.0214 -5.2291,-0.47061 z m 15.4999,-15.78708 c 0.2177,-0.65313 -0.3166,-1.1875 -1.1875,-1.1875 -0.8708,0 -1.5833,0.7125 -1.5833,1.58333 0,1.76593 2.1528,1.45839 2.7708,-0.39583 z m 9.6417,1.20772 c 2.0353,-0.78102 1.0436,-2.39522 -1.4715,-2.39522 -1.9411,0 -2.5298,1.07787 -1.2743,2.33333 0.8114,0.81143 0.7935,0.81103 2.7458,0.0619 z m -35.4125,-1.89522 c 0,-0.825 -0.3949,-1.5 -0.8776,-1.5 -0.4826,0 -1.4377,0.675 -2.1224,1.5 -1.0401,1.2532 -0.8957,1.5 0.8776,1.5 1.2199,0 2.1224,-0.63782 2.1224,-1.5 z m 18.3241,-1.90223 c 0.6772,-1.76464 -0.1329,-2.59777 -2.5259,-2.59777 -1.5587,0 -1.6911,0.33168 -0.7982,2 1.2518,2.33895 2.5653,2.57516 3.3241,0.59777 z m 30.2572,-0.13647 c 1.8990001,1.24425 2.9361001,1.42135 3.7219001,0.63554 1.7278,-1.72782 -1.9674,-3.77499 -6.9499001,-3.85032 -3.4978,-0.0529 -4.3533,0.27671 -4.3533,1.67717 0,2.70168 1.1643,3.23757 3.1432,1.44669 1.6723,-1.51337 1.9999,-1.50666 4.4381,0.0909 z m 17.7521001,-5.06285 c 1.0084,-1.31915 2.8767,-2.39845 4.1517999,-2.39845 1.525,0 3.0199,-1.10789 4.3681,-3.23736 1.8482,-2.91892 1.8912,-3.32611 0.4376,-4.13957 -1.2035,-0.67356 -2.0994,-0.23324 -3.5349,1.73736 -1.0576,1.45176 -2.6939999,2.63957 -3.6364999,2.63957 -2.0343,0 -9.471,7.31521 -8.46219996,8.32399 1.1721,1.1721 4.73839996,-0.39071 6.67609996,-2.92554 z m -65.3334001,0.60155 c 2.0912,-2.09116 2.657,-5.47593 1.0785,-6.45149 -0.9724,-0.60095 -4.0785,4.81027 -4.0785,7.10513 0,1.83679 0.6515,1.69484 3,-0.65364 z m -6,-2 c 0,-0.55 -0.45,-1 -1,-1 -0.55,0 -1,0.45 -1,1 0,0.55 0.45,1 1,1 0.55,0 1,-0.45 1,-1 z m 86.6642,-7.56722 c 0.8438,-2.19905 -1.4464,-4.40322 -2.6133,-2.5151 -0.9782,1.58267 -0.3123,4.08232 1.0875,4.08232 0.5084,0 1.195,-0.70525 1.5258,-1.56722 z m -30.3835999,-2.4085 c 0.6707,-0.94955 2.5694,-2.43869 4.2194,-3.30921 1.65,-0.87052 4.27560004,-2.96253 5.8348,-4.64892 1.5591,-1.68638 3.1965,-3.06615 3.6387,-3.06615 0.4421,0 1.0992,-1.57388 1.4601,-3.49751 0.4758,-2.53632 1.493,-3.93031 3.7015,-5.07235 1.6749999,-0.86617 3.6802999,-1.33121 4.4562999,-1.03343 0.776,0.29778 3.0482,-0.56966 5.0493,-1.92764 2.0011,-1.35799 4.4205,-2.46907 5.3764,-2.46907 0.9559,0 2.2576,-0.62605 2.8926,-1.39122 0.6351,-0.76517 2.3777,-1.63706 3.8725,-1.93752 7.7589,-1.55958 12.5488,-3.48686 13.6144,-5.47807 0.6329,-1.18249 3.0525,-3.54864 5.377,-5.2581 2.3245,-1.70946 4.2264,-3.88053 4.2264,-4.8246 0,-0.94407 1.2963,-3.49264 2.8806,-5.66349 1.5844,-2.17085 3.2035,-5.522 3.5982,-7.447 0.3946,-1.925 1.3484,-4.49667 2.1194,-5.71482 0.771,-1.21815 1.4018,-3.57154 1.4018,-5.22976 0,-1.65822 0.7355,-4.85311 1.6344,-7.09976 1.3769,-3.44125 1.4291,-4.46852 0.331,-6.52024 -1.4378,-2.68669 -2.457,-2.84984 -8.7432,-1.39968 -4.6646,1.07607 -7.6693,0.0715 -11.9938,-4.00992 -1.4217,-1.34182 -4.5475,-2.51043 -8.355,-3.12362 -3.346,-0.53884 -8.8488,-1.61266 -12.2285,-2.38625 -3.3797,-0.77359 -9.9838,-1.71004 -14.6759,-2.08099 -8.2457999,-0.65191 -8.6368999,-0.58532 -11.70069986,1.99271 -3.12720004,2.63141 -3.16500004,2.77041 -2.81740004,10.36974 0.3727,8.15049 2.3932,18.19392 4.41920004,21.96719 0.66869996,1.24553 3.02949996,3.40949 5.24619996,4.80881 l 4.0303,2.54422 -0.6948,6.69118 c -0.3821,3.68016 -1.0393,7.14119 -1.4605,7.69119 -0.4212,0.55 -2.0072,4.15 -3.5244,8 -1.5173,3.85 -3.97939996,8.575 -5.4714,10.5 -1.492,1.925 -3.2682,5.20844 -3.947,7.29653 -0.6789,2.08809 -2.9925,5.82795 -5.1414001,8.31082 -2.1489,2.48286 -3.9071,5.11979 -3.9071,5.85985 0,1.81181 3.6949,0.8022 5.2806001,-1.44292 z m -91.9750971,-7.91678 c -0.1415,-0.21588 -0.9233,0.16036 -1.7375,0.83609 -1.6765,1.39137 -3.568,0.62608 -3.568,-1.44359 0,-0.76008 -0.3375,-1.59055 -0.75,-1.84549 -0.4125,-0.25494 -0.75,1.75992 -0.75,4.47746 0,7.02435 2.2708,8.18863 5.0124,2.56987 1.1276,-2.31101 1.9345,-4.37847 1.7931,-4.59434 z m 23.624197,3.6425 c 0.091,-2.25501 -3.4886,-2.34179 -4.3468,-0.10538 -0.3586,0.93437 0.1195,2.47405 1.107,3.56524 1.6629,1.83741 1.7692,1.84198 2.4538,0.10538 0.3937,-0.99838 0.7474,-2.60274 0.786,-3.56524 z m -37.517197,1.64522 c 0.8668,-0.33264 1.327,-1.00764 1.0227,-1.5 -0.8716,-1.4104 -3.1636,-1.04532 -3.7968,0.60478 -0.6142,1.60045 0.228,1.87223 2.7741,0.89522 z m 148.089097,-2.64522 c 3.7097,-2.4029 4.5697,-5.61597 2.0607,-7.69832 -1.1715,-0.97227 -1.727,-0.63384 -3,1.82785 -0.8592,1.66159 -2.3068,3.43773 -3.2168,3.94698 -0.9956,0.5572 -1.4064,1.57252 -1.0314,2.5497 0.8013,2.08801 1.0422,2.05893 5.1875,-0.62621 z m -87.5016,-1.75 c 0,-0.55 -0.45,-1 -1,-1 -0.55,0 -1,0.45 -1,1 0,0.55 0.45,1 1,1 0.55,0 1,-0.45 1,-1 z m -60.606997,-2.58179 c 1.0164,-2.6487 0.6972,-3.41821 -1.4178,-3.41821 -1.2395,0 -2.3933,-0.96944 -2.9752,-2.5 -0.5228,-1.375 -1.3958,-2.5 -1.9401,-2.5 -1.8626,0 -3.3118,-3.99157 -2.016,-5.55291 0.6505,-0.78379 1.5912,-1.17264 2.0904,-0.86411 0.4992,0.30853 1.5792,-1.04643 2.4001,-3.01101 0.8208,-1.96458 1.7293,-3.57197 2.0189,-3.57197 2.4425,0 8.865,4.64799 9.783,7.08005 1.4295,3.78709 2.4383,3.74407 1.877,-0.0801 -0.2643,-1.80081 0.01,-3 0.6732,-3 0.6124,0 1.1135,-0.45857 1.1135,-1.01905 0,-0.58971 -1.0614,-0.75267 -2.5192,-0.38679 -2.3513,0.59014 -2.5012,0.40818 -2.25,-2.73094 0.2063,-2.57719 -0.081,-3.27135 -1.2308,-2.97015 -3.6426,0.95453 -5.5482,0.48788 -6.4586,-1.58152 -0.5294,-1.20365 -1.6554,-2.42808 -2.502,-2.72097 -0.8467,-0.29288 -2.3053,-1.09216 -3.2414,-1.77618 -2.7176,-1.9857 -3.0566,-0.36694 -0.7439,3.55266 l 2.1353,3.61913 -2.5947,3.08363 c -1.4271,1.696 -2.5947,4.20369 -2.5947,5.57265 0,1.36896 -0.453,3.33547 -1.0067,4.37003 -0.8313,1.55327 -0.1783,2.76148 3.7477,6.93426 5.0066,5.32121 6.6552,6.06913 7.652,3.47145 z m 26.426497,-0.58988 c -0.471,-3.2015 -2.8195,-3.54438 -2.8195,-0.41166 0,1.6805 0.5485,2.58333 1.5695,2.58333 1.0424,0 1.4623,-0.72946 1.25,-2.17167 z m 16.2157,-1.37071 c 0.9095,-1.09596 0.9702,-1.85222 0.2096,-2.61287 -1.4317,-1.43165 -3.2448,-0.19436 -3.2448,2.21427 0,2.3354 1.2875,2.50448 3.0352,0.3986 z m -8.2033,-9.66141 -1.2879,-2.29621 -0.354,2.34494 c -0.1947,1.28972 0.2454,3.76472 0.978,5.5 l 1.332,3.15506 0.3099,-3.20379 c 0.1705,-1.76209 -0.2696,-4.23709 -0.978,-5.5 z m -49.831897,1.70017 c 0,-0.827 -0.9,-3.18283 -2,-5.2352 -1.1,-2.05236 -2,-4.76656 -2,-6.03155 0,-1.265 -0.7022,-3.37161 -1.5603,-4.68136 -1.4368,-2.19277 -1.417,-2.46476 0.25,-3.43441 1.5101,-0.87844 1.5458,-1.05808 0.2153,-1.08345 -0.8773,-0.0167 -2.426,0.88783 -3.4417,2.01012 -1.7592,1.94389 -1.7651,2.17858 -0.1247,4.95547 1.0357,1.7533 1.4833,3.86529 1.1233,5.2997 -0.4572,1.82175 -0.01,2.77033 1.8939,4.01789 1.3709,0.89822 2.782,2.54512 3.1357,3.65977 0.7484,2.35796 2.5085,2.72493 2.5085,0.52302 z m 183.811097,-4.33842 c 1.1375,-1.71311 1.1633,-2.15796 0.1253,-2.15796 -1.4462,0 -5.9364,3.88935 -5.9364,5.14209 0,1.44659 4.3537,-0.78911 5.8111,-2.98413 z m -122.4479,-1.65375 c -0.7149,-1.8631 -3.4856,-2.78178 -4.7068,-1.56062 -1.5474,1.54744 2.2456,5.38266 3.9359,3.97977 0.7089,-0.58827 1.0558,-1.67689 0.7709,-2.41915 z m 14.6368,-1.50421 c 0,-0.55 -0.1984,-1 -0.441,-1 -0.2425,0 -0.7191,0.45 -1.059,1 -0.3399,0.55 -0.1415,1 0.441,1 0.5824,0 1.059,-0.45 1.059,-1 z m -88.999997,-2.05902 c 0,-0.51754 -0.45,-0.94098 -1,-0.94098 -0.55,0 -1,0.70156 -1,1.55902 0,0.85746 0.45,1.2809 1,0.94098 0.55,-0.33992 1,-1.04148 1,-1.55902 z m 17,1.05902 c 0,-0.55 -0.45,-1 -1,-1 -0.55,0 -1,0.45 -1,1 0,0.55 0.45,1 1,1 0.55,0 1,-0.45 1,-1 z m 108.161197,-5.16029 -1.9927,-4.33971 -0.084,3.17857 c -0.046,1.74822 0.6443,3.90714 1.5348,4.79762 2.5163,2.51632 2.7249,1.11713 0.5422,-3.63648 z m -76.1612,0.60127 c 0,-0.85746 -0.45,-1.2809 -1,-0.94098 -0.55,0.33992 -1,1.04148 -1,1.55902 0,0.51754 0.45,0.94098 1,0.94098 0.55,0 1,-0.70156 1,-1.55902 z m -49.212997,-1.6125 c 0.3254,-1.64543 -3.3407,-5.39678 -4.0495,-4.14362 -0.2535,0.44833 -0.7491,2.02204 -1.1012,3.49713 -0.5866,2.45711 -0.4095,2.65751 2.1117,2.38999 1.5136,-0.1606 2.8812,-0.94517 3.039,-1.7435 z m 56.698197,-3.93633 -0.6729,-4.89215 4.1252,0 c 2.7444,0 4.3179,0.5021 4.7009,1.5 0.987,2.57214 2.3616,1.64456 2.3616,-1.59362 0,-2.21707 0.5478,-3.23687 1.9334,-3.5992 1.6483,-0.43107 1.7721,-0.85947 0.8394,-2.90638 -1.3462,-2.95468 -2.8814,-3.05782 -4.5981,-0.30892 -0.9673,1.54887 -1.9351,1.93408 -3.7285,1.48398 -1.3321,-0.33434 -3.307,-0.0552 -4.3886,0.62027 -2.5692,1.60448 -3.8278,0.26672 -2.2005,-2.33899 0.7048,-1.12854 0.9637,-2.34558 0.5753,-2.70452 -0.3884,-0.35894 -0.8962,-0.12273 -1.1285,0.52491 -0.2687,0.74935 -1.6734,0.97449 -3.8631,0.61915 -4.2889,-0.69599 -4.5996,1.10371 -0.4408,2.55348 2.4393,0.85033 3,1.60966 3,4.06264 0,1.99338 -0.6785,3.37995 -2,4.0872 -1.2187,0.65222 -2,2.09382 -2,3.69017 0,2.52805 0.068,2.55841 1.937,0.86686 2.3689,-2.14386 4.063,-1.28453 4.063,2.061 0,1.53406 0.4169,2.24234 1.079,1.83314 0.6895,-0.42611 0.8361,-2.43301 0.4062,-5.55902 z m 24.5148,4.54883 c 0,-0.85746 -0.45,-1.2809 -1,-0.94098 -0.55,0.33992 -1,1.04148 -1,1.55902 0,0.51754 0.45,0.94098 1,0.94098 0.55,0 1,-0.70156 1,-1.55902 z m 7.5,0.55902 c 0.3399,-0.55 0.1415,-1 -0.441,-1 -0.5824,0 -1.059,0.45 -1.059,1 0,0.55 0.1984,1 0.441,1 0.2425,0 0.7191,-0.45 1.059,-1 z m 9.5,-0.41821 c 0,-3.08073 -1.1173,-4.28202 -3.5501,-3.81696 -1.3474,0.25758 -2.4499,0.86586 -2.4499,1.35175 0,0.48588 -0.027,1.22092 -0.059,1.63342 -0.033,0.4125 0.98,1.04264 2.25,1.40032 3.5359,0.99587 3.809,0.9551 3.809,-0.56853 z m -85.000797,-4.0833 c -0.7354,-1.37417 -1.7809,-2.49849 -2.3232,-2.49849 -0.5423,0 -0.2412,0.82293 0.669,1.82874 0.9103,1.00581 1.655,2.43081 1.655,3.16667 0,0.73586 0.3007,1.03725 0.6682,0.66975 0.3675,-0.3675 0.067,-1.7925 -0.669,-3.16667 z m 27.8203,-0.67016 c -0.4043,-2.7481 -2.8195,-3.67178 -2.8195,-1.07833 0,2.07546 0.8082,3.25 2.2362,3.25 0.4966,0 0.7591,-0.97725 0.5833,-2.17167 z m 23.680497,1.17167 c 0.3399,-0.55 -0.3351,-1 -1.5,-1 -1.1649,0 -1.8399,0.45 -1.5,1 0.3399,0.55 1.0149,1 1.5,1 0.4851,0 1.1601,-0.45 1.5,-1 z m 49.9573,0.0691 c 0.3164,-0.512 0.118,-1.21356 -0.441,-1.55902 -0.559,-0.34546 -1.0163,0.0734 -1.0163,0.9309 0,1.75653 0.6001,2.01516 1.4573,0.62812 z m 97.1527,-1.58822 c 1.727,-1.72699 2.4202,-3.37784 2.2046,-5.25 -0.437,-3.79359 -2.2033,-3.41072 -5.2971,1.1482 -4.0685,5.99524 -1.8042,8.99851 3.0925,4.1018 z m -219.609997,-1.92186 c 0,-0.79254 -0.45,-1.7191 -1,-2.05902 -0.55,-0.33992 -1,0.30852 -1,1.44098 0,1.13246 0.45,2.05902 1,2.05902 0.55,0 1,-0.64844 1,-1.44098 z m 37.845,-3.58132 c 0.1996,-1.36925 -0.3461,-2.87092 -1.2956,-3.56526 -2.0973,-1.53356 -3.1861,-7.94034 -1.6616,-9.77723 0.6307,-0.75994 0.9139,-2.11375 0.6294,-3.00846 -0.2844,-0.89471 -0.7475,-2.35243 -1.029,-3.23937 -0.8849,-2.78793 -3.4988,0.40125 -3.2267,3.93673 0.2796,3.63186 -2.6773,5.09185 -3.7117,1.8327 -0.5195,-1.63688 -1.2651,-1.87056 -4.5585,-1.42882 -3.6014,0.48305 -4.0889,0.26178 -5.7143,-2.59362 -1.7559,-3.08467 -3.277,-4.07539 -3.277,-2.13437 0,0.55 -0.9,1 -2,1 -1.8345,0 -2.4993,-1.08967 -2.0705,-3.39369 0.4756,-2.55561 -1.2585,-6.45909 -3.0812,-6.93573 -1.6966,-0.44367 -1.9247,-1.04621 -1.3634,-3.60169 0.523,-2.38152 0.3314,-3.06889 -0.8558,-3.06889 -0.8413,0 -1.9387,0.73081 -2.4386,1.62403 -0.7807,1.39506 -1.4198,1.4554 -4.5328,0.428 -1.9932,-0.65781 -4.5623,-2.51363 -5.709,-4.12403 -1.3714,-1.92599 -2.957,-2.928 -4.6334,-2.928 -2.1941,0 -2.4805,0.35543 -2.0598,2.55645 0.2865,1.49835 -0.1169,3.16208 -0.9745,4.0197 -1.8665,1.86649 -0.8279,11.42385 1.2414,11.42385 2.3749,0 4.5155,3.00067 3.8975,5.46323 -0.9119,3.63299 1.1197,3.8433 4.4974,0.46559 2.5372,-2.53721 3.1936,-2.80344 3.6943,-1.49852 0.3817,0.99471 -0.5356,2.75755 -2.4584,4.72421 -2.4692,2.52557 -2.8709,3.50438 -2.0601,5.01944 1.1121,2.07798 2.9069,1.57398 2.9069,-0.8163 0,-0.83837 0.5625,-1.32588 1.25,-1.08335 1.2133,0.42801 1.3821,1.69807 0.6194,4.66066 -0.5546,2.15434 5.3029,2.45105 6.8806,0.34854 2.0204,-2.69246 1.5802,-7.38438 -0.75,-7.99375 -1.1,-0.28766 -2.0563,-1.14553 -2.125,-1.90638 -0.423,-4.68113 -0.7876,-7.1853 -1.3819,-9.49202 -0.4803,-1.86399 -0.2393,-2.77475 0.8442,-3.19055 2.1698,-0.83262 3.6433,1.41199 4.1285,6.28873 0.2315,2.32676 0.5589,4.29347 0.7275,4.37047 2.9132,1.32992 4.3656,2.74027 4.6262,4.49213 0.1758,1.18133 0.7865,2.14787 1.357,2.14787 0.5706,0 0.7566,-0.73204 0.4132,-1.62675 -0.3433,-0.89471 -0.1067,-2.25026 0.5257,-3.01233 1.6229,-1.95548 4.0282,0.20994 3.3363,3.0035 -0.3548,1.43216 0.1083,2.52872 1.4057,3.32915 1.6015,0.98801 2.2377,0.85884 3.6937,-0.75 0.9674,-1.06896 2.4964,-1.94357 3.3978,-1.94357 2.4499,0 9.4675,7.88897 9.6933,10.89676 0.1074,1.43178 0.2319,2.97824 0.2766,3.43657 0.177,1.81635 2.6025,-0.1362 2.9262,-2.35563 z m -43.5092,-25.54492 c -0.8334,-2.17196 1.2825,-4.21451 2.797,-2.7 1.28,1.28004 0.487,4.26722 -1.1328,4.26722 -0.5845,0 -1.3334,-0.70525 -1.6642,-1.56722 z m -6.6483,-1.07861 c -1.4645,-1.46446 -0.6094,-5.3256 1.4199,-6.41163 3.221,-1.72383 4.8042,0.3461 2.8779,3.76263 -1.5772,2.7974 -3.1685,3.77826 -4.2978,2.649 z m 98.894097,24.18696 c -1.1201,-2.68073 -1.2727,-4.24984 -0.5455,-5.60856 0.7074,-1.32188 0.6467,-2.4677 -0.2031,-3.82834 -0.9527,-1.52547 -0.9482,-2.26052 0.021,-3.42819 0.6785,-0.8175 1.3681,-4.90284 1.5325,-9.07854 0.202,-5.13148 0.8064,-8.16023 1.865,-9.34484 0.8615,-0.96396 1.7198,-2.87766 1.9074,-4.25266 0.3035,-2.2233 0.7546,-2.46775 4.0757,-2.20865 2.9572,0.2307 3.6163,-0.0167 3.1665,-1.1889 -0.3125,-0.81413 -1.8753,-1.76736 -3.4731,-2.11828 -4.0391,-0.88715 -4.5522,-2.29631 -1.2879,-3.53738 2.5661,-0.97566 3.0893,-0.69157 7.4388,4.03943 3.464,3.76798 4.8278,4.69968 5.2538,3.58941 0.4628,-1.20599 2.395,-1.45801 9.8714,-1.28756 l 9.296,0.21193 0,-2.5 c 0,-1.98743 -0.4432,-2.43893 -2.1614,-2.20215 -2.8268,0.38955 -4.1173,-1.75529 -1.9914,-3.3098 2.0281,-1.48298 2.1579,-4.35701 0.2301,-5.09675 -2.0821,-0.79898 -6.0866,3.62979 -5.7316,6.33881 0.3533,2.69606 -2.5643,4.28244 -3.9829,2.16561 -0.5144,-0.76765 -0.7223,-2.85822 -0.4619,-4.64572 0.3023,-2.07588 0.044,-3.28999 -0.7138,-3.36069 -3.1783,-0.29635 -6.2895,0.38626 -7.2261,1.58541 -1.7762,2.27426 -6.8233,2.17209 -9.8378,-0.19915 -3.4811,-2.7382 -5.3962,-2.08866 -4.8483,1.64438 0.4419,3.01065 -1.4753,5.18289 -2.7516,3.11773 -0.6724,-1.08786 -2.9989,-2.66541 -6.8164,-4.622 -2.1814,-1.11798 -2.6307,0.45859 -0.7294,2.55943 1.4826,1.63828 1.5744,2.25745 0.5225,3.52489 -1.0478,1.26248 -0.983,1.86128 0.362,3.3475 0.9009,0.99549 1.638,3.01586 1.638,4.48971 0,2.43968 0.1819,2.567 2.0305,1.42126 1.679,-1.04058 2.1956,-0.99876 2.9838,0.24153 1.4413,2.26809 0.6008,3.5 -2.3879,3.5 -3.2333,0 -5.0229,2.31731 -3.3481,4.33535 0.6414,0.77277 1.282,5.40597 1.4268,10.31944 0.1446,4.90436 0.7514,9.82963 1.3483,10.94504 0.8008,1.4962 0.7665,2.41229 -0.1308,3.49341 -0.9837,1.1853 -0.7701,1.94015 1.1174,3.94932 3.133,3.33491 4.5098,1.70904 2.5416,-3.00143 z m -2.1776,-38.93081 c -0.9096,-2.37017 1.1633,-4.44302 2.8031,-2.80318 0.9429,0.94286 0.8415,1.57285 -0.4632,2.87754 -1.5605,1.56054 -1.7145,1.55564 -2.3399,-0.0744 z m 21.8453,41.86581 c 0.5102,-2.66891 -0.8232,-4.30221 -2.3037,-2.82175 -0.99,0.99005 -0.1309,5.34562 1.0545,5.34562 0.4217,0 0.9839,-1.13574 1.2492,-2.52387 z m 29.1231,0.009 c 1.3537,-1.35367 1.2813,-1.87524 -0.6786,-4.89108 -1.994,-3.06836 -2.276,-3.20359 -3.0966,-1.48474 -0.4966,1.04009 -1.2841,1.89108 -1.75,1.89108 -0.466,0 -0.8472,0.43588 -0.8472,0.96862 0,0.53273 0.675,0.70959 1.5,0.39301 1.0969,-0.42094 1.5,0.1249 1.5,2.03138 0,2.94669 1.1463,3.31779 3.3724,1.09173 z m -10.9187,-1.4098 c 0.3144,-0.50879 0.029,-2.11713 -0.6353,-3.5741 -0.9145,-2.00728 -0.9285,-3.09493 -0.057,-4.48966 0.9007,-1.44213 0.8345,-2.1021 -0.3057,-3.04835 -2.2658,-1.88085 -1.7446,-3.96322 0.9918,-3.96322 2.2148,0 2.4319,-0.37964 2.2875,-4 -0.1839,-4.61136 -2.1549,-5.36625 -3.9164,-1.5 -1.1596,2.54494 -3.8181,3.46475 -3.8181,1.321 0,-2.27412 2.4124,-7.82217 3.4509,-7.93635 4.4904,-0.49372 7.5491,-2.11974 7.5491,-4.0131 0,-1.66589 -0.5142,-1.8158 -4.25,-1.23901 -6.0441,0.93317 -9.6109,3.64414 -8.9999,6.84048 0.3555,1.85974 0.056,2.52698 -1.1335,2.52698 -1.6064,0 -2.2236,3.18461 -1.717,8.86033 0.1159,1.29817 -0.5437,3.19391 -1.4657,4.21275 -1.8743,2.07103 -1.2949,4.92692 0.9995,4.92692 2.1717,0 3.6411,-3.37736 2.9572,-6.79686 -0.3608,-1.8044 -0.1282,-3.24728 0.5958,-3.69473 2.1155,-1.30744 3.1953,1.14121 3.3667,7.63425 0.1659,6.28678 0.9341,8.85734 2.6469,8.85734 0.4851,0 1.1392,-0.41628 1.4537,-0.92506 z m 99.717,-6.61028 c -0.187,-2.77695 0.1304,-3.46505 1.598,-3.46505 2.2063,0 4.2313,-1.85267 4.2313,-3.87126 0,-0.80919 0.6359,-2.18169 1.4131,-3.05 1.62,-1.81007 5.5869,-12.64422 5.5869,-15.2589 0,-2.00846 -2.8668,-3.81984 -6.0456,-3.81984 -1.9352,0 -2.106,0.3785 -1.5376,3.40804 0.4699,2.50484 -0.031,4.92299 -1.8887,9.12443 -1.3905,3.14401 -2.5424,6.8979 -2.5599,8.34196 -0.018,1.44406 -0.6925,3.49908 -1.5,4.5667 -1.5089,1.99488 -1.9874,6.70638 -0.8015,7.8922 1.1708,1.17088 1.7441,-0.30362 1.504,-3.86867 z m 3.496,-10.13133 c -1.1507,-1.15102 -0.7283,-2.33372 0.8333,-2.33372 0.825,0 1.5,0.675 1.5,1.5 0,1.56157 -1.1827,1.98397 -2.3333,0.83333 z m -185.078897,8.35786 c -1.0518,-0.65515 -2.7393,-1.97869 -3.75,-2.94119 -2.5765,-2.45341 -2.3016,-0.87259 0.3365,1.93555 1.1959,1.27295 2.8834,2.28799 3.75,2.25564 1.2632,-0.0471 1.1964,-0.29507 -0.3365,-1.25 z m 59.962997,-1.99754 c 1.3186,1.31856 1.9004,1.45269 2.2145,0.51047 0.2343,-0.70291 1.5423,-2.60461 2.9066,-4.22601 2.8246,-3.35687 2.74,-6.47726 -0.1756,-6.47988 -1.1627,-10e-4 -2.5113,-1.12891 -3.2882,-2.75 -1.7263,-3.60165 -3.1116,-3.48092 -3.8753,0.33772 -0.7634,3.81718 -2.7898,4.71541 -5.37,2.38034 -1.9142,-1.73264 -1.9628,-1.6916 -1.9628,1.65609 0,2.19526 0.721,4.05008 2,5.1452 1.1,0.94185 2,2.4616 2,3.37723 0,1.53969 0.1413,1.53687 1.8811,-0.0376 1.7733,-1.60482 1.9837,-1.59988 3.6697,0.0861 z m -2.9766,-5.36087 c -0.3519,-0.91697 -0.1941,-2.1129 0.3506,-2.65762 1.3453,-1.34528 4.1289,1.02123 3.4088,2.89795 -0.7459,1.94369 -2.976,1.80112 -3.7594,-0.24033 z m -37.5895,-4.89569 c 0.023,-4.55974 4.9226,-8.89164 10.0572,-8.89164 2.5375,0 3.9581,-0.45679 3.9581,-1.27272 0,-0.7 -1.1546,-1.27273 -2.5657,-1.27273 -4.3103,0 -6.696,-1.82105 -6.003,-4.58217 0.3444,-1.37235 0.1662,-2.41783 -0.4123,-2.41783 -2.0136,0 -0.9688,-3.0686 1.3443,-3.94803 2.1457,-0.81578 3.5872,-3.52216 3.623,-6.80197 0.01,-0.6875 -1.1199,-1.25 -2.5054,-1.25 -2.1876,0 -2.4365,0.3289 -1.8915,2.5 0.4876,1.943 0.2431,2.5 -1.0976,2.5 -1.2327,0 -1.5758,-0.5708 -1.2021,-2 0.5852,-2.23751 -1.192,-2.69766 -3.0897,-0.8 -0.9333,0.93333 -1.4667,0.93333 -2.4,0 -1.3791,-1.37905 -5.429,-1.60927 -6.2056,-0.35276 -0.4951,0.80112 -0.6789,5.19542 -0.4793,11.45931 0.077,2.42827 0.4463,2.76524 2.7372,2.5 3.1434,-0.36394 4.3535,-4.55224 1.7382,-6.01586 -2.1519,-1.20464 -2.0196,-3.79108 0.1939,-3.79108 2.1966,0 5.2156,4.88335 5.2156,8.43641 0,3.79661 -2.6472,9.56359 -4.39,9.56359 -2.3102,0 -2.6411,1.3862 -1.0588,4.43601 0.7968,1.53593 1.4488,3.56617 1.4488,4.51163 0,0.94546 0.3068,2.02579 0.6817,2.40072 1.0654,1.06542 2.2861,-1.53781 2.303,-4.91127 z m 260.260803,-1.93748 c 0.4198,-2.75 0.3121,-12.2 -0.2394,-21 -0.5515,-8.8 -1.0035,-21.50492 -1.0044,-28.23315 l 0,-12.23316 -4.9406,-2.50358 c -6.1661,-3.12463 -18.9542,-8.2524 -25.5594,-10.24887 -2.75,-0.83121 -6.5996,-2.0957 -8.5546,-2.80999 -5.4897,-2.00571 -24.7565,-7.52525 -31.445403,-9.00848 -3.3,-0.73176 -9.15,-2.42752 -13,-3.76836 -3.85,-1.34084 -16,-4.1213 -27,-6.17879 -11,-2.0575 -22.54,-4.36521 -25.6443,-5.12826 -3.1044,-0.76305 -7.8294,-1.38997 -10.5,-1.39315 -2.6707,-0.003 -7.4393,-0.42895 -10.597,-0.94615 -12.26399986,-2.00873 -60.9128,-3.1713 -81.6212,-1.95053 -38.141997,2.2485 -71.872397,6.65235 -91.637497,11.96421 -4.4,1.1825 -9.125,2.36179 -10.5,2.62066 -3.9032,0.73485 -22.8992,5.21296 -29,6.83649 -11.2605,2.99659 -44.7329,14.42197 -51.2704,17.50048 -3.7237,1.75351 -7.1195,3.92899 -7.5463,4.83441 -0.4268,0.90542 -0.7196,15.59622 -0.6505,32.64622 0.1159,28.63812 0.2585,31.02573 1.8708,31.33765 0.9598,0.18571 2.4992,-0.28658 3.4208,-1.04953 2.8329,-2.34531 8.3341,-4.66583 16.1756,-6.82322 11.4205,-3.14205 18.3934,-5.31152 19.5,-6.06699 1.3169,-0.89899 13.0634,-4.04191 17.4547,-4.67022 1.9001,-0.27187 3.9854,-1.02491 4.6339,-1.67342 0.6485,-0.64851 3.8189,-1.76946 7.0452,-2.49099 3.2264,-0.72154 8.5662,-2.11258 11.8662,-3.09121 10.5052,-3.11536 13.8266,-3.95196 21.5,-5.4154 9.4647,-1.80507 26.4088,-4.6252 31,-5.15956 1.925,-0.22404 6.65,-0.84603 10.5,-1.38219 36.450897,-5.07622 84.375597,-5.41861 137.794697,-0.98447 10.4475,0.8672 29.9151,4.82369 46.7053,9.49211 33.176103,9.22443 38.971703,10.91057 50.000003,14.54677 16.1901,5.33813 22.2462,7.71099 23.0661,9.03758 0.3907,0.63213 1.1623,0.86998 1.7147,0.52857 0.9055,-0.55963 16.2698,5.08634 20.1423,7.40173 3.5499,2.12251 5.5216,0.70748 6.3224,-4.53721 z m -413.0455,-15.7 c -1.6005,-1.60053 -1.5252,-5.28526 0.1363,-6.66417 0.735,-0.60998 3.3041,-1.80333 5.7092,-2.65189 2.4051,-0.84856 4.6471,-1.98664 4.9824,-2.52907 0.3352,-0.54243 0.2739,-3.34168 -0.1362,-6.22055 -0.4101,-2.87888 -0.7854,-9.28432 -0.834,-14.23432 -0.049,-4.95 -0.4536,-9.57558 -0.9,-10.27907 -0.4464,-0.70349 -2.1947,-1.17368 -3.8851,-1.04488 -3.4926,0.26613 -6.2726,-1.58468 -6.2726,-4.17605 0,-3.09871 -0.4025,-2.93018 28.5,-11.93166 9.16,-2.85281 16.423,-4.39649 24.5883,-5.226 11.1846,-1.13623 11.7486,-1.09969 16.1865,1.04863 8.4188,4.07548 13.7041,12.06224 13.7196,20.73191 0.012,6.5637 -5.8534,16.43501 -12.4079,20.88299 -4.855,3.29469 -23.1803,11.03509 -29.5865,12.49703 -7.1809,1.63871 -19.9164,5.59926 -27.6706,8.60512 -6.8435,2.65284 -10.3263,2.9951 -12.1294,1.19198 z m 36.8,-18.766 c 8.5012,-2.12892 16.5965,-5.80074 19.1405,-8.68162 3.2211,-3.64776 6.861,-12.02361 7.0231,-16.1612 0.2108,-5.37931 -2.6979,-8.67844 -9.4085,-10.67126 -4.5601,-1.3542 -5.4649,-1.28534 -14.5587,1.10788 -5.333,1.40351 -10.2942,3.12529 -11.0248,3.82617 -0.9928,0.95229 -1.3124,4.99104 -1.2647,15.98197 0.035,8.0892 0.3481,15.16771 0.6957,15.73002 0.3475,0.56231 1.8166,0.73486 3.2646,0.38345 1.4481,-0.35141 4.2078,-1.03334 6.1328,-1.51541 z m 332,16.06859 c -1.5339,-0.90709 -20.0608,-6.93253 -27.796003,-9.03999 -5.5129,-1.50198 -7.3042,-4.73457 -4.7683,-8.60481 1.5934,-2.43177 2.0802,-2.57451 6.641803,-1.94712 4.6925,0.64537 4.9225,0.56718 4.9225,-1.67343 0,-4.85555 -2.008,-8.95945 -7.668703,-15.67302 -3.2072,-3.80374 -7.8563,-9.50417 -10.3313,-12.66762 -6.7348,-8.60812 -7.527,-9.29285 -12.1972,-10.54163 -5.3633,-1.43409 -6.8028,-2.58838 -6.8028,-5.45497 0,-4.25934 1.9837,-4.74325 12.1609,-2.96653 5.1365,0.89673 11.1391,2.46688 13.3391,3.48922 2.2,1.02233 6.025003,2.36449 8.500003,2.98257 7.3826,1.84365 11.4255,3.18945 12.75,4.2442 1.9177,1.52712 1.4867,5.45209 -0.8362,7.61623 -2.2912,2.13453 -1.7957,4.12127 1.8509,7.42134 1.8661,1.68878 2.0524,1.68165 4.3339,-0.1658 2.2215,-1.79881 2.2733,-2.0563 0.761,-3.77584 -2.6065,-2.96361 -3.116,-5.94615 -1.3221,-7.74002 2.4049,-2.40487 1.5214,-2.58393 22.4625,4.55273 11.3803,3.87837 17,7.08016 17,9.68566 0,0.51407 -0.8201,1.94739 -1.8223,3.18516 l -1.8224,2.25049 -6.5982,-2.63971 c -3.629,-1.45183 -7.8715,-2.63542 -9.4277,-2.6302 -1.566,0.005 -5.62,1.77993 -9.0794,3.97459 l -6.25,3.96508 0,9.94786 0,9.94787 3.3529,1.10657 c 1.8442,0.60861 4.4038,2.22504 5.688,3.59206 1.941,2.06606 2.1737,2.94709 1.379,5.22097 -0.7182,2.05494 -1.6979,2.79641 -3.9379,2.98032 -1.6401,0.13465 -3.657,-0.15435 -4.482,-0.64223 z M 63.785657,227.41146 c -4.675,-1.06213 -12.8124,-3.0345 -18.0832,-4.38305 -5.2707,-1.34854 -10.7469,-2.4519 -12.1692,-2.4519 -1.4223,0 -5.382,-0.71629 -8.7993,-1.59176 -3.4173,-0.87546 -10.9911,-1.88796 -16.8307999,-2.25 -10.4401,-0.64724 -10.6225,-0.70088 -10.9148,-3.21042 -0.4111,-3.52825 2.41050004,-5.7453 7.7991,-6.12819 4.1811,-0.2971 4.4938,-0.51352 4.4357,-3.06963 -0.034,-1.5125 -0.1469,-8.78925 -0.25,-16.17054 l -0.1875,-13.42055 -3.0083,-0.66074 c -3.4874,-0.76595 -5.41039996,-3.69373 -4.5854,-6.98101 0.9343,-3.72256 -0.27129996,-3.72851 28.5936999,0.14115 5.3916,0.7228 7,1.83531 7,4.84169 0,3.19543 -2.5544,4.91804 -7.358,4.96205 l -4.142,0.0379 -0.277,15.42302 c -0.1523,8.48266 0.081,15.78107 0.5187,16.21868 0.4376,0.43762 2.5873,1.06056 4.777,1.38433 13.2953,1.96583 22.4212,3.56114 25.4747,4.45329 5.3676,1.56826 5.7033,1.36501 6.3982,-3.87385 0.8933,-6.73425 2.1571,-7.57369 9.0721,-6.02619 3.0579,0.68435 6.1171,1.91708 6.7981,2.7394 1.7159,2.07197 1.561,18.485 -0.1944,20.60013 -1.6084,1.93802 -3.271,1.86902 -14.0674,-0.58386 z m -214.720097,-3.87969 c -1.221,-0.47777 -2.5119,-2.03129 -2.8685,-3.45226 -0.9158,-3.64869 1.8153,-6.32447 6.8391,-6.70077 3.7188,-0.27854 4.3571,-0.78616 8.1423,-6.47594 2.259,-3.39554 5.2033,-7.99724 6.5431,-10.226 1.3397,-2.22877 3.9059,-5.7506 5.7026,-7.8263 1.7968,-2.07569 4.3006,-5.48593 5.5642,-7.5783 1.2635,-2.09237 4.0231,-6.02987 6.1324,-8.75 6.5265,-8.41664 6.9016,-8.23494 29.009097,14.0548 18.5148,18.66732 18.9178,18.99951 23.05,18.99951 4.6379,0 6.6138,1.33414 6.5905,4.45 -0.035,4.64834 -1.0317,4.96793 -19.1903,6.15156 -14.7559,0.96183 -17.6386,0.91448 -19.6397,-0.3226 -2.0048,-1.23945 -2.2483,-1.96661 -1.6774,-5.0099 l 0.6679,-3.56 -5.822597,0.6228 c -3.2024,0.34254 -8.7476,0.89437 -12.3226,1.22629 -9.1051,0.84536 -9.6408,1.07627 -7.6361,3.29144 4.0438,4.46843 0.9614,7.76118 -8.1048,8.65754 -3.7175,0.36754 -8.3341,1.03368 -10.2591,1.48029 -7.3309,1.70082 -8.5626,1.81202 -10.7201,0.96784 z m 45.4701,-23.60324 c 3.057,-0.3672 5.25,-1.13043 5.25,-1.8272 0,-1.67105 -6.8062,-10.23647 -8.7165,-10.96954 -0.865,-0.33193 -2.4025,0.14744 -3.4167,1.06526 -1.9404,1.75607 -7.8668,10.58294 -7.8668,11.71701 0,0.83444 7.8592,0.84215 14.75,0.0145 z m 83.149097,16.21376 c -0.2388,-0.23883 -5.7869,-0.69438 -12.3291,-1.01236 -6.5422,-0.31797 -12.4968,-1.07767 -13.2324,-1.68822 -1.7637,-1.46373 -1.7081,-5.31286 0.099,-6.81214 0.7898,-0.65551 2.7023,-1.53048 4.25,-1.94439 2.3552,-0.6299 2.8048,-1.27057 2.7583,-3.93062 -0.031,-1.74793 -0.143,-9.02805 -0.25,-16.17805 -0.1931,-12.9156 -0.2096,-13 -2.5394,-13 -4.519,0 -7.4845,-6.23674 -4.2442,-8.92597 2.0192,-1.6758 29.2681,-0.35801 32.3392,1.56396 4.7076,2.94613 1.6619,8.36201 -4.7025,8.36201 l -3.8097,0 0.1311,16.18548 0.1311,16.18548 3.3804,0.8769 c 5.1535,1.33684 8.1196,3.67186 8.1196,6.3919 0,1.66657 -0.7911,2.71051 -2.5651,3.38499 -2.6501,1.00759 -6.7732,1.3036 -7.5358,0.54103 z m -76.8991,49.43422 c 0,-0.55 -0.5335,-1 -1.185497,-1 -1.6313,0 -5.8145,-4.05759 -5.8145,-5.63984 0,-0.71016 -1.35,-2.67223 -3,-4.36016 -3.0259,-3.09544 -4.1,-8.00329 -1.75,-7.99626 0.6875,0.002 2.7395,0.91189 4.5601,2.02186 4.3226,2.63544 6.2221,1.48687 2.7956,-1.69041 -3.2652,-3.02767 -3.2929,-4.83884 -0.1057,-6.92715 3.68,-2.41124 3.0548,-3.56322 -1.7452,-3.21554 -3.8446,0.27848 -4.2939,0.59058 -4.7611,3.3075 -0.4704,2.73536 -0.8678,3.00412 -4.5048,3.04671 -5.0259,0.0589 -6.4889,-0.41342 -6.4889,-2.09468 0,-1.31651 -1.8015,-2.98384 -2.4852,-2.30012 -0.1938,0.19371 -0.6609,1.582 -1.0381,3.08511 -0.5837,2.32561 -0.2978,2.8805 1.9187,3.7232 1.4325,0.54465 2.6046,1.67642 2.6046,2.51503 0,0.85216 0.8721,1.52475 1.9769,1.52475 1.0874,0 2.7726,1.2375 3.745,2.75 0.9724,1.5125 2.8211,3.60029 4.1082,4.63953 1.9057,1.53877 2.2255,2.50045 1.7228,5.18047 -0.5664,3.0188 -0.3874,3.32563 2.1648,3.71063 5.2671,0.79454 7.282297,0.71688 7.282297,-0.28063 z m 81.5,-1 c -0.3399,-0.55 -1.068,-1 -1.618,-1 -0.55,0 -0.7219,0.45 -0.382,1 0.3399,0.55 1.068,1 1.618,1 0.55,0 0.7219,-0.45 0.382,-1 z m -21.5,-5 c 0,-3.12634 -0.5783,-3.55337 -2.857,-2.10953 -1.7081,1.0823 -0.5854,5.10953 1.4244,5.10953 0.9251,0 1.4326,-1.06272 1.4326,-3 z m -74.999997,0.64602 c 0,-0.74468 -1.125,-2.56787 -2.5,-4.05152 -1.375,-1.48365 -2.5,-3.3975 -2.5,-4.25301 0,-1.00754 -0.5572,-1.34165 -1.5818,-0.94848 -0.87,0.33385 -1.9528,0.60699 -2.4064,0.60699 -0.4535,0 -0.6025,0.84921 -0.3311,1.88714 0.2715,1.03793 -0.044,2.21963 -0.702,2.62601 -0.8242,0.50937 -0.3077,1.46506 1.6629,3.07689 3.1542,2.57998 8.3584,3.23747 8.3584,1.05598 z m 57.999997,-1.70504 c 0,-0.51754 -0.45,-0.94098 -1,-0.94098 -0.55,0 -1,0.70156 -1,1.55902 0,0.85746 0.45,1.2809 1,0.94098 0.55,-0.33992 1,-1.04148 1,-1.55902 z m -73.880997,-6.17536 c -0.3938,-5.45383 -1.4105,-7.26569 -5.1135,-9.113 -2.8089,-1.40124 -3.0055,-1.3758 -3.0055,0.38884 0,1.0385 0.8788,2.3585 1.9529,2.93335 1.6377,0.87647 1.904,1.92857 1.6494,6.51784 -0.167,3.00996 -0.087,5.68958 0.1784,5.9547 0.2651,0.26512 1.4187,-0.17402 2.5635,-0.97588 1.6578,-1.16117 2.019,-2.32254 1.7748,-5.70585 z m 76.299197,3.62739 c 2.2344,-0.85742 1.9661,-2.39301 -0.4182,-2.39301 -1.1111,0 -2,0.66667 -2,1.5 0,1.68305 0.1832,1.75069 2.4182,0.89301 z m -86.418197,-6.73937 c 0,-2.09989 -3.5395,-6.65364 -5.1717,-6.65364 -1.8736,0 -1.8119,0.25675 0.8232,3.4278 2.471,2.97357 4.3485,4.36633 4.3485,3.22584 z m -11,-3.65364 c 0,-1.1 -0.4234,-2 -0.941,-2 -1.3423,0 -2.2882,1.82013 -1.559,3 1.0451,1.69104 2.5,1.10908 2.5,-1 z m 130.999997,-9 c 0,-2 -0.5,-3 -1.5,-3 -1.7944,0 -1.9888,3.11116 -0.3,4.8 1.6857,1.68569 1.8,1.57138 1.8,-1.8 z m 107,-75.12364 c 0,-0.55308 -0.9583,-3.23323 -2.1296,-5.9559 -1.6756,-3.89507 -2.4123,-4.7156 -3.4562,-3.84929 -0.7296,0.60556 -1.7963,0.81071 -2.3704,0.4559 -1.4021,-0.86654 -1.334,-5.26368 0.089,-5.73797 0.6963,-0.2321 0.856,-1.24927 0.4146,-2.6402 -1.0002,-3.15132 -3.9085,-2.33078 -4.5396,1.28081 -0.2792,1.59791 -1.07,3.09234 -1.7572,3.32095 -2.3107,0.76871 -2.4838,-2.72299 -0.3589,-7.24344 1.1596,-2.46698 2.1084,-5.05503 2.1084,-5.75121 0,-1.19311 -7.7714,-12.37538 -13.5462,-19.49161 -1.6042,-1.97688 -4.2455,-3.69832 -6.7897,-4.42504 -2.2903,-0.6542 -5.455,-2.46068 -7.0328,-4.0144 -3.2992,-3.24895 -4.6447,-3.56342 -4.5995,-1.07496 0.044,2.4173 2.3604,5.25 4.2933,5.25 1.8042,0 3.988,3.35352 2.8953,4.44625 -0.39,0.39006 -0.9367,3.25729 -1.2148,6.37162 -0.4026,4.50864 -0.8872,5.73511 -2.3783,6.01922 -1.7099,0.3258 -1.8361,-0.21645 -1.4526,-6.24014 0.2311,-3.62832 0.1738,-6.59006 -0.1273,-6.58164 -1.332,0.0373 -2.8341,1.66493 -3.4975,3.78974 -1.4183,4.54294 -3.0621,1.719 -2.7046,-4.64637 0.366,-6.51604 0.4636,-6.37289 -5.1992,-7.62029 -1.9466,-0.4288 -3.2085,-1.568 -3.9692,-3.58352 -1.3294,-3.5219 -2.2369,-3.745443 -3.0217,-0.74433 l -0.5781,2.21054 -2.4622,-2.31315 -2.4623,-2.31315 -0.3263,2.84406 c -0.3598,3.13626 -3.8263,4.78595 -3.8263,1.82094 0,-1.43946 -0.6788,-1.58508 -4.6279,-0.99288 -6.2263999,0.93371 -7.1897999,1.38334 -7.9245999,3.69851 -0.5758,1.81419 -0.7747,1.84845 -2.3668,0.40762 -0.95599996,-0.86517 -2.53469996,-1.57303 -3.5083,-1.57303 -0.9736,0 -3.3004,-0.72614 -5.1706,-1.61364 -2.4358,-1.15583 -4.6758001,-1.42239 -7.8956001,-0.93956 l -4.495,0.67407 1.555,3.00725 c 1.7316,3.34854 1.587,7.00013 -0.3019,7.6221 -0.6796,0.22378 -1.7643,-0.75347 -2.4105,-2.17167 -1.7938,-3.93703 -6.7771,-3.14807 -5.2501,0.83121 0.3357,0.87463 1.4621,1.59024 2.5033,1.59024 1.4367,0 1.893,0.72318 1.893,3 0,2.84307 0.2134,3 4.0795,3 3.9827,0 4.0643,-0.0688 3.4414,-2.9048 -0.8175,-3.72207 1.1573,-5.07185 2.4491,-1.67401 0.785,2.06451 1.4885001,2.45984 3.7482001,2.10625 1.53,-0.23941 5.7873,-0.69028 9.4607,-1.00193 6.0871,-0.51643 6.8154,-0.37168 8.2200999,1.63372 0.9613,1.37248 2.7825,2.29812 4.8404,2.46019 1.8146,0.14291 4.6405,0.95922 6.2799,1.81404 3.9735,2.07189 5.1948,1.96921 6.5431,-0.55012 0.9857,-1.84169 1.3198,-1.92971 2.572,-0.67755 1.672,1.67199 0.8251,4.79421 -1.3004,4.79421 -2.4228,0 -0.5715,1.7025 2.5247,2.32173 3.7211,0.74423 6.1413,3.18478 6.1413,6.19299 0,1.30453 0.8522,2.96879 1.8938,3.69836 1.4754,1.03339 1.9093,2.62145 1.9639,7.1872 0.079,6.65085 0.7146,7.90515 2.6575,5.24801 1.4504,-1.9835 3.4848,-1.45181 3.4848,0.91073 0,0.79254 0.9,1.44098 2,1.44098 2.5985,0 2.5393,-2.04462 -0.1583,-5.47417 -2.1002,-2.66991 -2.1135,-2.86899 -0.4951,-7.38486 0.9148,-2.55253 1.6611,-5.59837 1.6583,-6.76853 0,-1.17015 0.6701,-2.68775 1.4951,-3.37244 0.825,-0.68469 1.5,-1.80969 1.5,-2.5 0,-0.69031 -0.675,-1.81531 -1.5,-2.5 -1.7405,-1.44447 -2.0315,-6 -0.3834,-6 0.6142,0 0.8943,-0.85019 0.6226,-1.8893 -0.2717,-1.03912 -0.099,-2.50162 0.3834,-3.25 1.414,-2.19292 3.0085,1.02582 1.71,3.45208 -0.7715,1.44158 -0.6421,2.30629 0.5189,3.46728 1.3956,1.39564 1.4914,1.3354 0.981,-0.61667 -0.411,-1.57156 -0.1149,-2.16339 1.0822,-2.16339 2.0917,0 3.2093,2.77596 1.7181,4.26722 -0.623,0.62303 -1.1328,1.92042 -1.1328,2.88309 0,0.96267 -0.6144,2.11017 -1.3653,2.55 -0.7509,0.43983 -1.6142,2.14969 -1.9183,3.79969 -0.3042,1.65 -1.0553,4.97133 -1.6691,7.38072 -0.8239,3.23355 -0.8214,5.27384 0.01,7.79125 0.6191,1.87578 0.8863,4.03405 0.5938,4.79616 -0.7106,1.85189 0.8875,2.88743 6.733,4.36293 4.5535,1.14938 4.9819,1.09215 6.3401,-0.84686 1.1512,-1.64365 1.7521,-1.83427 2.8664,-0.90943 0.7755,0.64357 1.4099,1.75252 1.4099,2.46434 0,1.9928 2.3048,2.36994 4.2313,0.69239 1.4057,-1.22407 2.0168,-1.27052 3.25,-0.24707 1.2772,1.05999 1.5187,0.9229 1.5187,-0.86199 0,-1.21995 0.6379,-2.12244 1.5,-2.12244 1.7225,0 2.0429,3.54644 0.4116,4.55467 -0.6654,0.41125 -0.1796,1.14888 1.25,1.89787 2.471,1.29463 3.8384,1.08937 3.8384,-0.57618 z m -28.3256,-7.62636 c -1.2583,-2.12699 -1.7218,-9.10266 -0.649,-9.7657 2.3117,-1.4287 4.095,1.91051 3.3865,6.34114 -0.6205,3.88043 -1.6822,5.20858 -2.7375,3.42456 z m 12.3256,-0.75 c 0,-0.91667 0.4837,-1.50542 1.075,-1.30833 0.5912,0.19708 1.075,0.78583 1.075,1.30833 0,0.5225 -0.4838,1.11125 -1.075,1.30833 -0.5913,0.19709 -1.075,-0.39166 -1.075,-1.30833 z m -3.6,-12.9 c -0.3661,-0.95394 -0.1706,-2.22943 0.4344,-2.83443 0.8,-0.8 1.2815,-0.62698 1.7656,0.63443 0.3661,0.95394 0.1706,2.22943 -0.4344,2.83443 -0.8,0.8 -1.2815,0.62698 -1.7656,-0.63443 z m -6.9743,-4.85 c 0.3498,-2.3375 0.7345,-5.825 0.8551,-7.75 0.2703,-4.31546 3.0573,-4.90667 3.5356,-0.75 0.2157,1.87488 0.8946,2.75 2.1334,2.75 0.9993,0 2.048,0.88345 2.3303,1.96323 0.5849,2.23666 -1.6943,4.79368 -2.7501,3.08533 -1.1551,-1.86902 -2.2665,-1.11594 -2.88,1.95144 -0.3722,1.86097 -1.2189,3 -2.23,3 -1.3508,0 -1.5211,-0.72816 -0.9943,-4.25 z m -15.4257,-1.19098 c 0,-0.85746 0.45,-1.55902 1,-1.55902 0.55,0 1,0.42344 1,0.94098 0,0.51754 -0.45,1.2191 -1,1.55902 -0.55,0.33992 -1,-0.0835 -1,-0.94098 z m -7.62,-4.01113 c -0.3065,-0.79867 -0.2658,-1.92367 0.09,-2.5 1.1647,-1.88455 2.5296,-1.10104 2.5296,1.45211 0,2.71088 -1.7181,3.39807 -2.62,1.04789 z m -22.9865,-10.96473 c -0.3341,-0.87074 -0.3485,-2.25816 -0.032,-3.08316 0.6985,-1.82015 0.2146,-1.87678 -2.3502,-0.27504 -1.521,0.94986 -2.2297999,0.9566 -3.1563999,0.03 -1.8409,-1.84086 0.8594,-9.25496 3.3707999,-9.25496 2.76,0 5.7742,1.83923 5.7742,3.52339 0,0.91024 0.8393,1.36405 2.2468,1.21482 1.6585,-0.17585 2.3312,0.35081 2.5695,2.01179 0.3809,2.65509 -2.2569,3.15026 -3.2328,0.60687 -0.9026,-2.35194 -2.0835,-0.7156 -2.0835,2.88691 0,3.32126 -2.1177,4.91604 -3.1065,2.33938 z m 16.1166,-0.56685 c -0.7376,-1.19337 0.1986,-3.01631 1.5489,-3.01631 1.2168,0 1.2247,2.70662 0.01,3.45729 -0.512,0.31644 -1.2135,0.11799 -1.559,-0.44098 z m -42.0022,-7.00106 c -1.7114,-3.30953 -1.9905,-7.01525 -0.5282,-7.01525 0.82,0 5.0203001,6.98868 5.0203001,8.35317 0,0.23807 -0.6715,0.69051 -1.4921,1.00543 -0.9701,0.37227 -2.0196001,-0.44752 -3.0000001,-2.34335 z m 36.4921,-4.01525 c 0,-1.1 0.4019,-2 0.893,-2 1.124,0 2.1726,2.60112 1.3714,3.40223 -1.2037,1.20377 -2.2644,0.54696 -2.2644,-1.40223 z m -165.999997,47.45034 c 0,-0.81767 -2.9914,-6.45034 -3.4257,-6.45034 -0.2059,0 -0.3743,1.575 -0.3743,3.5 0,2.77193 0.3952,3.5 1.9,3.5 1.045,0 1.9,-0.24735 1.9,-0.54966 z m 21.8423,-4.91334 c 5.0408,0.26136 5.3097,0.15524 4.7637,-1.88 -0.3183,-1.18635 -0.5848,-2.54264 -0.5924,-3.01399 -0.01,-0.47134 -0.6886,-0.59797 -1.5136,-0.28138 -1.4388,0.55212 -1.9261,-0.41686 -1.5716,-3.12501 0.2514,-1.92056 -2.742,-2.63625 -4.5948,-1.09855 -0.9025,0.74899 -2.3614,1.23974 -3.2421,1.09054 -1.5772,-0.26719 -5.0915,6.07944 -5.0915,9.19492 0,2.20164 2.2985,2.49748 4.5,0.57919 1.4761,-1.28619 3.3995,-1.67015 7.3423,-1.46572 z m 157.562597,-0.21598 c 0.085,-2.83515 -0.076,-3.02442 -1.4836,-1.75 -0.8684,0.78594 -2.1058,1.42898 -2.75,1.42898 -1.566,0 -1.5026,2.69662 0.079,3.34923 2.6798,1.10602 4.0612,0.0992 4.1548,-3.02821 z m -173.654397,0.42898 c -0.6301,-1.89219 -3.7505,-2.1612 -3.7505,-0.32332 0,0.92763 0.855,1.57332 2.0833,1.57332 1.222,0 1.9113,-0.51682 1.6672,-1.25 z m 30.1063,0.35969 c 0.9458,-0.5993 1.0215,-1.06688 0.25,-1.54371 -0.6088,-0.37621 -1.1068,-1.59496 -1.1068,-2.70833 0,-2.97302 2.4413,-1.69927 2.8164,1.46947 0.2954,2.49525 0.646,2.67288 5.274797,2.67288 4.3687,0 5.0713,-0.29727 5.9088,-2.5 0.5228,-1.375 1.4116,-2.5 1.9752,-2.5 0.5637,0 1.0248,-0.45 1.0248,-1 0,-0.55 -1.5484,-1 -3.441,-1 -1.8925,0 -3.7191,-0.45 -4.059,-1 -0.3399,-0.55 -2.0044,-1 -3.698797,-1 -1.754,0 -3.6199,-0.73738 -4.3327,-1.71225 -1.6576,-2.2668 -3.9197,-0.48067 -5.5156,4.35494 -0.9786,2.96515 -0.8888,3.77061 0.6038,5.42001 1.9649,2.1712 2.3701,2.26985 4.3001,1.04699 z m 118.559097,-2.30801 c 4.8468,-0.50146 4.0653,-2.35437 -0.8288,-1.96512 -3.8218999,0.30397 -4.6411999,0.0105 -6.0734999,-2.17554 -1.2934,-1.9739 -1.414,-2.97856 -0.5512,-4.5907 1.1669,-2.18035 7.8939999,-6.07032 10.4977999,-6.07032 0.9682,0 1.5398,-0.91118 1.5398,-2.45469 0,-2.05138 -0.6161,-2.56418 -3.75,-3.12111 -2.0625,-0.36654 -4.9819999,-1.81589 -6.4878999,-3.22079 -2.4564,-2.29177 -2.9891,-2.41986 -5.1825,-1.24601 -1.3446,0.7196 -3.10569996,1.05468 -3.9137,0.74464 -1.0816,-0.41506 -1.6056,0.40698 -1.9869,3.11712 -0.2849,2.02446 -0.8065,5.03084 -1.1591,6.68084 -0.3527,1.65 -0.8475,4.0125 -1.0996,5.25 -0.8332,4.08995 -6.6245001,2.81959 -13.2051001,-2.89665 -1.8066,-1.56934 -4.0566,-2.85612 -5,-2.85951 -0.9434,-0.003 -3.0652,-0.74228 -4.7152,-1.64198 -1.65,-0.89969 -4.6737,-2.47577 -6.7194,-3.50239 -4.5966,-2.30678 -6.2734,-5.0601 -4.7806,-7.84947 0.5887,-1.1 1.4742,-2 1.9678,-2 1.5528,0 2.1265,-3.6219 1.0303,-6.505 -1.0348,-2.72173 -1.1508,-2.75577 -6.7755,-1.98763 -3.1474,0.42984 -7.7476,0.7343 -10.2226,0.67658 -10.2544,-0.23916 -11.6018,-0.14031 -13.8117,1.01331 -1.7859,0.93225 -2.7434,0.93717 -4.2094,0.0216 -1.0437,-0.65182 -3.2036,-0.92394 -4.7998,-0.60471 -1.782,0.3564 -4.1324,-0.0558 -6.0898,-1.06802 -3.0396,-1.57184 -3.349,-1.54875 -6.6589,0.49686 l -3.4711,2.14528 -5.0032,-2.61608 -5.003197,-2.61607 -2.3383,2.3383 c -1.663,1.66303 -2.5504,4.05188 -3.0728,8.27193 -0.8414,6.79648 -1.6024,8.01428 -6.2122,9.94037 -5.3375,2.23016 -4.0806,3.53881 3.0444,3.16969 4.3267,-0.22415 7.5851,-1.04475 10.1445,-2.55486 4.805097,-2.8351 6.874097,-2.18566 5.981697,1.87759 -0.787,3.58332 -0.5273,3.61774 6.2146,0.82338 4.7067,-1.95081 5.5289,-2.03007 7.8993,-0.76149 1.4551,0.77877 3.3456,2.88363 4.201,4.67745 1.6716,3.50521 1.762,3.54484 7.4859,3.27823 4.8249,-0.22473 6.699,1.34348 6.699,5.6057 l 0,3.37756 21.25,0.1307 c 11.6875,0.0719 24.625,0.46448 28.75,0.87241 6.7962001,0.67211 18.8621001,0.5801 26.4159,-0.20143 z m -93.4159,-1.67924 c 0,-1.03265 -0.6436,-2.41171 -1.4303,-3.06456 -1.9192,-1.59283 -4.1181,1.99375 -2.3229,3.78892 1.76,1.76001 3.7532,1.37533 3.7532,-0.72436 z m -52.999997,-7.56342 c 0,-0.79254 -0.45,-1.7191 -1,-2.05902 -0.55,-0.33992 -1,0.30852 -1,1.44098 0,1.13246 0.45,2.05902 1,2.05902 0.55,0 1,-0.64844 1,-1.44098 z m 3.6831,-13.74652 c -0.3192,-0.79773 -0.5562,-0.56078 -0.6041,0.60417 -0.043,1.05416 0.1929,1.64479 0.5252,1.3125 0.3323,-0.3323 0.3678,-1.1948 0.079,-1.91667 z m 6.3169,-0.3125 c 0,-0.825 -0.45,-1.5 -1,-1.5 -0.55,0 -1,0.675 -1,1.5 0,0.825 0.45,1.5 1,1.5 0.55,0 1,-0.675 1,-1.5 z m 8.3005,-3.84068 c 0.5293,-1.37936 -0.8527,-4.47271 -1.6219,-3.63036 -0.2366,0.25907 -0.7414,1.48354 -1.1218,2.72104 -0.4985,1.62194 -0.2839,2.25 0.7688,2.25 0.8032,0 1.6919,-0.60331 1.9749,-1.34068 z m -22.1854,-6.50811 c 1.3117,-1.01683 5.6474,-2.64031 9.6349,-3.60772 3.9875,-0.96741 7.25,-1.94991 7.25,-2.18333 0,-2.49891 -3.41,-7.21382 -6.3239,-8.74374 l -3.5874,-1.883583 -7.0443,7.016483 c -6.5738,6.54774 -8.0177,8.94401 -6.3777,10.58401 1.2109,1.21094 4.0276,0.69459 6.4484,-1.18212 z m 108.884897,-11.15121 c 0,-1.1 -0.45,-2 -1,-2 -0.55,0 -1,0.1882 -1,0.41821 0,0.23002 -0.2731,1.13002 -0.607,2 -0.3983,1.03799 -0.055,1.58179 1,1.58179 0.9403,0 1.607,-0.82971 1.607,-2 z m -82.999997,-1 c 0,-2.10908 -1.4549,-2.691043 -2.5,-1 -0.7292,1.17987 0.2167,3 1.559,3 0.5176,0 0.941,-0.9 0.941,-2 z m 32.999997,-0.96482 c 0,-1.941363 -0.6904,-3.334303 -2,-4.035183 -2.2875,-1.22421 -2.6739,-4.52741 -0.6219,-5.31487 1.5617,-0.59925 3.6219,1.08742 3.6219,2.96518 0,0.68767 0.572,1.61017 1.2711,2.05 0.699,0.43983 1.8144,2.03719 2.4785,3.549693 1.2423,2.82928 3.5961,3.61764 4.8318,1.61832 0.3847,-0.62242 -0.039,-1.54478 -0.941,-2.04969 -1.0888,-0.609303 -1.6404,-2.246423 -1.6404,-4.868323 0,-3.29974 -0.3335,-3.95031 -2.0248,-3.95031 -1.2395,0 -2.3933,-0.96944 -2.9752,-2.5 -1.3034,-3.42831 -2.5982,-3.15522 -7.117,1.50114 -4.5899,4.72955 -5.2095,7.9751 -1.383,7.24361 2.2097,-0.42241 2.5,-0.13534 2.5,2.472013 0,3.24346 0.6473,4.28324 2.6667,4.28324 0.8113,0 1.3333,-1.1608 1.3333,-2.96482 z m 28.5553,0.49965 c 1.2566,-1.35584 2.4393,-3.268343 2.6284,-4.250003 0.6024,-3.12827 3.3248,-2.10618 3.2366,1.21517 -0.092,3.457303 0.9858,4.463233 4.804,4.484693 2.0136,0.0113 3.1224,-0.75439 4.25,-2.93503 2.1291,-4.117173 1.9099,-6.340063 -0.8838,-8.964653 -2.4215,-2.27486 -3.3579,-6.40515 -3.8733,-17.08501 -0.217,-4.49554 -0.2138,-4.5 3.1908,-4.5 4.4012,0 5.1187,-2.04467 1.0061,-2.86719 -6.5496,-1.3099 -7.662,-0.91816 -8.1023,2.85322 -0.2238,1.91732 -0.047,4.12865 0.3922,4.91406 1.1351,2.02832 -0.097,4.59991 -2.204,4.59991 -1.8912,0 -3.3982,-2.54661 -2.4321,-4.10979 0.3158,-0.51112 0.049,-2.52113 -0.5931,-4.46669 -0.9174,-2.77956 -1.6289,-3.47162 -3.3211,-3.23045 -2.954,0.42098 -3.3476,4.01677 -0.581,5.30693 1.7151,0.79983 2.2109,2.04636 2.4769,6.22741 0.3413,5.36624 -0.3032,6.68809 -2.7951,5.73187 -2.205,-0.84615 -4.8517,-7.2239 -4.153,-10.00768 0.4537,-1.80773 0.2106,-2.4516 -0.9257,-2.4516 -0.8476,0 -1.8267,-0.9 -2.1758,-2 -0.5319,-1.67599 -2.5,-2.92121 -2.5,-1.58179 0,0.23002 -0.2505,1.07088 -0.5566,1.86858 -0.3524,0.91833 0.2343,1.65718 1.5994,2.01414 1.9385,0.50694 2.0839,0.99905 1.4423,4.88142 -0.8463,5.12078 -0.9304,5.24447 -3.0216,4.44201 -1.1728,-0.45002 -1.4625,-1.38555 -1.0449,-3.37353 0.3178,-1.51296 0.1435,-3.42583 -0.3874,-4.25083 -0.8295,-1.28893 -1.2709,-1.19518 -3.1367,0.66624 l -2.1714,2.16624 2.1384,2.71862 c 2.6732,3.39843 2.907,8.4627 0.3885,8.41748 -2.5258,-0.0454 -5.5464,-4.63768 -4.9843,-7.57791 0.3276,-1.71403 -0.1013,-2.76749 -1.4124,-3.4692 -2.5187,-1.34798 -3.6865,1.47783 -1.5976,3.86578 0.8241,0.94201 2.0826,3.36839 2.7966,5.39196 0.7141,2.02356 2.1194,3.89393 3.123,4.15638 1.333,0.3486 1.8247,1.4316 1.8247,4.01927 0,5.171613 3.3942,8.466203 8.1319,7.893183 2.0313,-0.24569 3.9303,0.0436 4.309,0.65634 1.0642,1.72188 2.6406,1.29975 5.1144,-1.36955 z m -12.8202,-2.731013 c -0.616,-1.71786 0.1663,-7.60247 1.4693,-11.05382 1.2322,-3.2637 3.2945,-3.55475 4.832,-0.68192 0.9967,1.86222 1.3237,1.92745 3.2852,0.65534 2.8699,-1.86121 4.6784,-1.13266 4.6784,1.88466 0,1.71196 -0.7804,2.73814 -2.612,3.43449 -1.8667,0.70974 -2.4723,1.52702 -2.1225,2.86455 0.595,2.2753 -0.6658,4.581523 -2.0403,3.732043 -0.5492,-0.339393 -1.3003,-2.225943 -1.6692,-4.192333 -0.4039,-2.15302 -1.1452,-3.40054 -1.8634,-3.13604 -0.6559,0.24156 -1.0157,1.05796 -0.7995,1.81421 0.9052,3.16667 0.5056,5.333173 -1.0418,5.647613 -0.9068,0.18427 -1.8591,-0.25169 -2.1162,-0.968793 z m 22.2649,-2.80382 c 0,-1.11111 0.6667,-2 1.5,-2 0.8333,0 1.5,0.88889 1.5,2 0,1.11111 -0.6667,2 -1.5,2 -0.8333,0 -1.5,-0.88889 -1.5,-2 z m -5.8233,-10.66713 c 0.4865,-2.50877 2.8233,-2.85325 2.8233,-0.4162 0,1.22833 -0.6457,2.08333 -1.5733,2.08333 -0.9313,0 -1.4414,-0.68037 -1.25,-1.66713 z m -41.3767,16.467133 c 1.8711,-1.87114 1.4609,-2.29428 -2.3029,-2.37503 -3.2414,-0.0695 -4.5074,1.23136 -2.8304,2.90836 1.0613,1.06133 3.8259,0.7741 5.1333,-0.53333 z M 9.4918571,98.959317 c 0.2046,-0.61445 -0.9049,-1.37255 -2.4654,-1.68466 -3.8973,-0.77945 -7.83469996,-4.99122 -11.0358,-11.80468 -2.2352,-4.75747 -3.2038,-5.81997 -5.6989,-6.25151 -8.6736001,-1.50011 -13.2567001,-2.5637 -15.5344001,-3.60506 -1.7776,-0.8127 -3.3201,-0.85494 -5.1946,-0.14225 -2.4126,0.91726 -2.6084,1.37034 -2.0578,4.76269 0.5735,3.53448 5.8362,12.34266 7.3744,12.34266 0.3898,0 1.6291,1.55997 2.7541,3.46661 1.9389,3.28613 2.2079,3.40992 5.1686,2.37782 1.8278,-0.63718 5.0646,-0.79654 7.8035001,-0.38421 17.2196,2.592353 18.3126,2.645743 18.8863,0.92259 z m 17.3905999,-5.50552 c -1.2751,-1.03251 -2.6561,-1.87729 -3.0689,-1.87729 -1.3082,0 0.2253,5.44879 1.8829,6.69049 1.2991,0.97315 1.764,0.81383 2.5468,-0.87271 0.7625,-1.64292 0.4853,-2.44562 -1.3608,-3.94049 z m -121.3471,-0.21084 c 5.0488,-2.45291 5.5477,-4.11291 1.0003,-3.32822 -1.7875,0.30845 -5.3672,0.85659 -7.954897,1.21808 -2.5877,0.36149 -5.5127,1.25319 -6.5,1.98155 -1.6837,1.24214 -1.64,1.38739 0.7049,2.34101 3.0404,1.23648 7.1012,0.53181 12.749697,-2.21242 z m 115.5442,-2.99986 c -0.9556,-1.54633 -3.3991,1.8956 -2.6786,3.77321 0.6217,1.6202 0.8114,1.56571 1.949,-0.55991 0.6931,-1.29514 1.0215,-2.74112 0.7296,-3.2133 z m -108.7528,-6.73312 c 0.9167,-1.48324 0.055,-2.0993 -1.8922,-1.35222 -0.9006,0.34557 -1.3884,1.03117 -1.0841,1.52353 0.7484,1.21104 2.1726,1.12906 2.9763,-0.17131 z m 106.4589,-1.37445 c 0,-0.24254 -0.45,-0.7191 -1,-1.05902 -0.55,-0.33992 -1,-0.14148 -1,0.44098 0,0.58246 0.45,1.05902 1,1.05902 0.55,0 1,-0.19844 1,-0.44098 z"
       style="fill:#000000" />
  </g>
</svg>
